<svg xmlns="http://www.w3.org/2000/svg" width="192" height="192" viewBox="0 0 24 24" fill="none" stroke="currentColor" stroke-width="1.5" stroke-linecap="round" stroke-linejoin="round">
  <style>
    :root {
      color-scheme: light dark;
    }
    @media (prefers-color-scheme: dark) {
      svg { color: #ffffff; }
    }
    @media (prefers-color-scheme: light) {
      svg { color: #000000; }
    }
  </style>
  <!-- Top face -->
  <path d="M21 16V8a2 2 0 0 0-1-1.73l-7-4a2 2 0 0 0-2 0l-7 4A2 2 0 0 0 3 8v8a2 2 0 0 0 1 1.73l7 4a2 2 0 0 0 2 0l7-4A2 2 0 0 0 21 16z"></path>
  <!-- Left face line -->
  <polyline points="3.27 6.96 12 12.41 12 19.9"></polyline>
  <!-- Right face line -->
  <polyline points="21 16.13 12 12.41 12 19.9"></polyline>
</svg>